# xmcd
#
# Track frame offsets: 
#        150
#        10716
#        27153
#        38096
#        53412
#        67522
#        82776
#        97165
#        111879
#        127664
#
# Disc length: 1893 seconds
#
# Revision: 0
# Processed by: cddbd v1.5.2PL0 Copyright (c) Steve Scherf et al.
# Submitted via: ExactAudioCopy v0.99pb4
#
DISCID=6207630a
DTITLE=The Kendalls - Fire At First Sight
DYEAR=1986
DGENRE=Country
TTITLE0=Fire At First Sight
TTITLE1=Central Standard Time
TTITLE2=If I Get That Close
TTITLE3=I'll Take You
TTITLE4=Party Line
TTITLE5=Too Late
TTITLE6=I'm Dreaming Again
TTITLE7=He Can't Make Your Kind of Love
TTITLE8=Little Doll
TTITLE9=You Can't Fool Love
EXTD=
EXTT0=
EXTT1=
EXTT2=
EXTT3=
EXTT4=
EXTT5=
EXTT6=
EXTT7=
EXTT8=
EXTT9=
PLAYORDER=
